<svg id="nuvole" xmlns="http://www.w3.org/2000/svg" viewBox="0 0 1000 756"><defs><style>.cls-1,.cls-2{fill:#fff;}.cls-2{font-size:139.26px;font-family:Roboto-Thin, Roboto;}.cls-3{letter-spacing:-0.01em;}.cls-4{letter-spacing:0em;}.cls-5{letter-spacing:0.02em;}.cls-6{letter-spacing:-0.01em;}.cls-7{font-family:Roboto-Light, Roboto;letter-spacing:0em;}</style></defs><title>Tavola disegno 1</title><path class="cls-1" d="M494.15,565.38c-.83,1.35-1.06,2.47-.5,2.48,44.82,1.08,250-.34,250-1.73C743.61,563.2,496,562.46,494.15,565.38Z"/><path class="cls-1" d="M494.47,590.4c-.7.7-.46,2.59.54,4.2,2.38,3.86,249.6,3.13,252-.74C748.73,591.06,497.25,587.62,494.47,590.4Z"/><path class="cls-1" d="M489.74,610.42H751.8v2.64h41V382.76l-130.3-.86c-102.49-.67-130.63,0-131.86,3.28-.85,2.27-4.27,14-7.58,26L517,433l17.06-.4c47.43-1.11,66,58.16,26,82.89-28.39,17.55-69.78-3-70.44-35-.1-5.1-31.23-30.62-37.35-30.62-.93,0-1.7,71.37-1.82,163.16h39.29ZM597.84,458.1v-8.19h154v16.38h-154Zm0,26.2v-8.19h154v16.38h-154Zm0,26.21v-8.19h154V518.7h-154ZM489.74,566.2V558H751.8v16.38H489.74Zm0,26.2v-8.19H751.8v16.38H489.74Z"/><path class="cls-1" d="M982.22,496.05c-10.27-75.77-92.42-92.8-92.42-92.8s14.28-81.6-61-124.35-144.07,0-144.07,0-40.26-81.6-149.28-81.6c-140.18,0-163.55,159.31-163.55,159.31S239.53,364.43,239.53,481s120.7,132.12,120.7,132.12h83.65V440.49l41.77-31.27L527.41,378l135.13-.05,135.12-.06V613.06H897.6s69.34-9.42,83.25-76.41A120.42,120.42,0,0,0,983.28,512,116.18,116.18,0,0,0,982.22,496.05Z"/><path class="cls-1" d="M748.53,459.74c0-2.09-26.21-3.28-72.07-3.28s-72.07,1.19-72.07,3.28S630.6,463,676.46,463,748.53,461.82,748.53,459.74Z"/><path class="cls-1" d="M748.53,512.15c0-2.09-26.21-3.28-72.07-3.28s-72.07,1.19-72.07,3.28,26.21,3.27,72.07,3.27S748.53,514.23,748.53,512.15Z"/><path class="cls-1" d="M515.9,466.29c7.86,0,9.62-1.51,10.48-9,1.49-13,16.93-13.16,18.43-.2.77,6.7,3.05,9.05,9.5,9.83,17.69,2.12,17.9,19.36.25,20.66-5.53.4-7.93,3.05-9.16,10.11-2.34,13.39-17.47,14-19,.76-.78-6.7-3.3-9.29-10.65-10.9-5.79-1.28-9.73-4.3-9.89-7.59S505,476,504,478.59c-.92,2.26-3,3.28-4.66,2.27-4.07-2.52-3.78,6.36.51,15.57,9.46,20.36,42.13,27.74,60.95,13.77,21.45-15.93,20.45-50.94-1.88-65.93-20.86-14-42.12-9-48.88,11.37C506.56,466,506.71,466.29,515.9,466.29Z"/><path class="cls-1" d="M748.53,485.94c0-2.08-26.21-3.27-72.07-3.27s-72.07,1.19-72.07,3.27,26.21,3.28,72.07,3.28S748.53,488,748.53,485.94Z"/><path class="cls-1" d="M532.33,493c0,9.46,7.63,12.42,8.6,3.34.22-2.1.59-5.93.82-8.51s4.35-5.17,9.16-5.74c12.75-1.51,13.88-9.22,1.35-9.22-7.78,0-10.1-1.45-10.1-6.29a38.52,38.52,0,0,0-2-11.46c-3.48-9.07-7.84-5.58-7.84,6.28,0,11-.51,11.47-11.74,11.47-14.8,0-13.67,7.73,1.35,9.21C531.09,483,532.33,484.26,532.33,493Z"/><path class="cls-1" d="M453.88,440.73c-.24,3.31,42.38,33.23,44.42,31.19,1.8-1.79,24.11-74.29,24.17-78.52C522.55,387.53,454.32,434.61,453.88,440.73Z"/><path id="nuvola_sopra" data-name="nuvola sopra" class="cls-1" d="M184.58,458.68c0-105.44,78.84-151.6,141-166.62,21.54-70.87,81.18-165,203-165,.14,0,.26,0,.4,0s.32,0,.48,0c84.5,0,137,39.49,165.36,70.85a200.1,200.1,0,0,1,56.31-8.23l.26,0h.24c.48,0,.93.1,1.41.1C753.89,182.94,737.91,15,544.77,15c-132,0-178.64,112.55-178.64,112.55S270.35,56.41,172,154.73c-50.5,50.48-38.84,128.07-38.84,128.07S16.64,294.46,16.64,418.66C16.67,531.18,137,542.82,137,542.82h67.35C192.26,519.81,184.58,492.1,184.58,458.68Z"/><text class="cls-2" transform="translate(2 742.54) scale(1.03 1)">Re<tspan class="cls-3" x="161.29" y="0">f</tspan><tspan class="cls-4" x="203.52" y="0">e</tspan><tspan class="cls-5" x="273.69" y="0">r</tspan><tspan class="cls-6" x="323.67" y="0">t</tspan><tspan x="366.37" y="0">o in </tspan><tspan class="cls-7" x="614.56" y="0">Cloud</tspan></text></svg>